<mxfile host="app.diagrams.net" agent="Mozilla/5.0 (Windows NT 10.0; Win64; x64; rv:131.0) Gecko/20100101 Firefox/131.0" version="24.8.3">
  <diagram name="Page-1" id="JGep0QqinlufXWnbs3ia">
    <mxGraphModel dx="913" dy="461" grid="1" gridSize="10" guides="1" tooltips="1" connect="1" arrows="1" fold="1" page="1" pageScale="1" pageWidth="850" pageHeight="1100" math="1" shadow="0">
      <root>
        <mxCell id="0" />
        <mxCell id="1" parent="0" />
        <mxCell id="BeLXK0xuvQ3qEr1ftq8z-11" value="" style="rounded=0;whiteSpace=wrap;html=1;fillColor=none;dashed=1;" vertex="1" parent="1">
          <mxGeometry x="400" y="120" width="240" height="80" as="geometry" />
        </mxCell>
        <mxCell id="BeLXK0xuvQ3qEr1ftq8z-1" value="" style="endArrow=classic;html=1;rounded=0;entryX=0;entryY=0.5;entryDx=0;entryDy=0;entryPerimeter=0;" edge="1" parent="1" target="BeLXK0xuvQ3qEr1ftq8z-3">
          <mxGeometry width="50" height="50" relative="1" as="geometry">
            <mxPoint x="50" y="160" as="sourcePoint" />
            <mxPoint x="100" y="190" as="targetPoint" />
          </mxGeometry>
        </mxCell>
        <mxCell id="BeLXK0xuvQ3qEr1ftq8z-6" value="" style="edgeStyle=orthogonalEdgeStyle;rounded=0;orthogonalLoop=1;jettySize=auto;html=1;" edge="1" parent="1" source="BeLXK0xuvQ3qEr1ftq8z-2" target="BeLXK0xuvQ3qEr1ftq8z-5">
          <mxGeometry relative="1" as="geometry" />
        </mxCell>
        <mxCell id="BeLXK0xuvQ3qEr1ftq8z-2" value="$$\text{Controller} $$" style="rounded=0;whiteSpace=wrap;html=1;" vertex="1" parent="1">
          <mxGeometry x="190" y="140" width="80" height="40" as="geometry" />
        </mxCell>
        <mxCell id="BeLXK0xuvQ3qEr1ftq8z-4" value="" style="edgeStyle=orthogonalEdgeStyle;rounded=0;orthogonalLoop=1;jettySize=auto;html=1;" edge="1" parent="1" source="BeLXK0xuvQ3qEr1ftq8z-3" target="BeLXK0xuvQ3qEr1ftq8z-2">
          <mxGeometry relative="1" as="geometry" />
        </mxCell>
        <mxCell id="BeLXK0xuvQ3qEr1ftq8z-3" value="" style="verticalLabelPosition=bottom;verticalAlign=top;html=1;shape=mxgraph.flowchart.or;" vertex="1" parent="1">
          <mxGeometry x="140" y="150" width="20" height="20" as="geometry" />
        </mxCell>
        <mxCell id="BeLXK0xuvQ3qEr1ftq8z-8" value="" style="edgeStyle=orthogonalEdgeStyle;rounded=0;orthogonalLoop=1;jettySize=auto;html=1;" edge="1" parent="1" source="BeLXK0xuvQ3qEr1ftq8z-5" target="BeLXK0xuvQ3qEr1ftq8z-7">
          <mxGeometry relative="1" as="geometry" />
        </mxCell>
        <mxCell id="BeLXK0xuvQ3qEr1ftq8z-5" value="$$\text{H-bridge} $$" style="rounded=0;whiteSpace=wrap;html=1;verticalAlign=middle;" vertex="1" parent="1">
          <mxGeometry x="300" y="140" width="80" height="40" as="geometry" />
        </mxCell>
        <mxCell id="BeLXK0xuvQ3qEr1ftq8z-10" value="" style="edgeStyle=orthogonalEdgeStyle;rounded=0;orthogonalLoop=1;jettySize=auto;html=1;" edge="1" parent="1" source="BeLXK0xuvQ3qEr1ftq8z-7" target="BeLXK0xuvQ3qEr1ftq8z-9">
          <mxGeometry relative="1" as="geometry" />
        </mxCell>
        <mxCell id="BeLXK0xuvQ3qEr1ftq8z-7" value="&lt;br&gt;&lt;div&gt;&lt;font style=&quot;font-size: 9px;&quot;&gt;$$\text{Motor + Gear}$$&lt;/font&gt;&lt;/div&gt;&lt;div style=&quot;font-size: 9px;&quot;&gt;&lt;font style=&quot;font-size: 9px;&quot;&gt;&lt;br style=&quot;font-size: 9px;&quot;&gt;&lt;/font&gt;&lt;/div&gt;" style="rounded=0;html=1;whiteSpace=wrap;fontSize=9;verticalAlign=middle;labelPosition=center;verticalLabelPosition=middle;align=center;spacing=2;" vertex="1" parent="1">
          <mxGeometry x="420" y="140" width="80" height="40" as="geometry" />
        </mxCell>
        <mxCell id="BeLXK0xuvQ3qEr1ftq8z-14" style="edgeStyle=orthogonalEdgeStyle;rounded=0;orthogonalLoop=1;jettySize=auto;html=1;exitX=1;exitY=0.5;exitDx=0;exitDy=0;" edge="1" parent="1" source="BeLXK0xuvQ3qEr1ftq8z-9">
          <mxGeometry relative="1" as="geometry">
            <mxPoint x="740" y="160" as="targetPoint" />
          </mxGeometry>
        </mxCell>
        <mxCell id="BeLXK0xuvQ3qEr1ftq8z-9" value="$$\text{Load}$$" style="rounded=0;whiteSpace=wrap;html=1;" vertex="1" parent="1">
          <mxGeometry x="540" y="140" width="80" height="40" as="geometry" />
        </mxCell>
        <mxCell id="BeLXK0xuvQ3qEr1ftq8z-12" value="$$\text{Plant}$$" style="text;html=1;align=center;verticalAlign=middle;whiteSpace=wrap;rounded=0;" vertex="1" parent="1">
          <mxGeometry x="400" y="90" width="240" height="30" as="geometry" />
        </mxCell>
        <mxCell id="BeLXK0xuvQ3qEr1ftq8z-13" style="edgeStyle=orthogonalEdgeStyle;rounded=0;orthogonalLoop=1;jettySize=auto;html=1;exitX=1;exitY=0.5;exitDx=0;exitDy=0;entryX=1;entryY=0.5;entryDx=0;entryDy=0;" edge="1" parent="1" source="BeLXK0xuvQ3qEr1ftq8z-9" target="BeLXK0xuvQ3qEr1ftq8z-18">
          <mxGeometry relative="1" as="geometry">
            <Array as="points">
              <mxPoint x="660" y="160" />
              <mxPoint x="660" y="240" />
            </Array>
          </mxGeometry>
        </mxCell>
        <mxCell id="BeLXK0xuvQ3qEr1ftq8z-17" value="$$\text{Ref:} \;&amp;nbsp; \phi$$" style="text;html=1;align=center;verticalAlign=middle;rounded=0;whiteSpace=wrap;" vertex="1" parent="1">
          <mxGeometry x="60" y="130" width="60" height="30" as="geometry" />
        </mxCell>
        <mxCell id="BeLXK0xuvQ3qEr1ftq8z-18" value="$$\text{Position Sensor}$$" style="rounded=0;whiteSpace=wrap;html=1;fontSize=9;" vertex="1" parent="1">
          <mxGeometry x="540" y="220" width="80" height="40" as="geometry" />
        </mxCell>
        <mxCell id="BeLXK0xuvQ3qEr1ftq8z-19" style="edgeStyle=orthogonalEdgeStyle;rounded=0;orthogonalLoop=1;jettySize=auto;html=1;exitX=0;exitY=0.5;exitDx=0;exitDy=0;entryX=0.5;entryY=1;entryDx=0;entryDy=0;entryPerimeter=0;" edge="1" parent="1" source="BeLXK0xuvQ3qEr1ftq8z-18" target="BeLXK0xuvQ3qEr1ftq8z-3">
          <mxGeometry relative="1" as="geometry" />
        </mxCell>
        <mxCell id="BeLXK0xuvQ3qEr1ftq8z-20" value="$$\text{Meas:} \; \phi $$" style="text;html=1;align=center;verticalAlign=middle;whiteSpace=wrap;rounded=0;" vertex="1" parent="1">
          <mxGeometry x="80" y="190" width="60" height="30" as="geometry" />
        </mxCell>
        <mxCell id="BeLXK0xuvQ3qEr1ftq8z-21" value="+" style="text;html=1;align=center;verticalAlign=middle;whiteSpace=wrap;rounded=0;" vertex="1" parent="1">
          <mxGeometry x="130" y="140" width="10" height="10" as="geometry" />
        </mxCell>
        <mxCell id="BeLXK0xuvQ3qEr1ftq8z-22" value="-" style="text;html=1;align=center;verticalAlign=middle;whiteSpace=wrap;rounded=0;" vertex="1" parent="1">
          <mxGeometry x="160" y="170" width="10" height="10" as="geometry" />
        </mxCell>
        <mxCell id="BeLXK0xuvQ3qEr1ftq8z-24" value="$$ \text{Pos:} \; \phi&amp;nbsp; $$" style="text;html=1;align=center;verticalAlign=middle;whiteSpace=wrap;rounded=0;" vertex="1" parent="1">
          <mxGeometry x="660" y="130" width="60" height="30" as="geometry" />
        </mxCell>
        <mxCell id="BeLXK0xuvQ3qEr1ftq8z-26" value="$$v$$" style="text;html=1;align=center;verticalAlign=middle;whiteSpace=wrap;rounded=0;" vertex="1" parent="1">
          <mxGeometry x="380" y="140" width="30" height="20" as="geometry" />
        </mxCell>
        <mxCell id="BeLXK0xuvQ3qEr1ftq8z-27" value="$$\text{Actuator}$$" style="text;html=1;align=center;verticalAlign=middle;whiteSpace=wrap;rounded=0;fontSize=9;" vertex="1" parent="1">
          <mxGeometry x="430" y="180" width="60" height="20" as="geometry" />
        </mxCell>
        <mxCell id="BeLXK0xuvQ3qEr1ftq8z-28" value="$$\text{Process}$$" style="text;html=1;align=center;verticalAlign=middle;whiteSpace=wrap;rounded=0;fontSize=9;" vertex="1" parent="1">
          <mxGeometry x="550" y="180" width="60" height="20" as="geometry" />
        </mxCell>
      </root>
    </mxGraphModel>
  </diagram>
</mxfile>
